<svg enable-background="new 0 0 500 500" viewBox="0 0 500 500" xmlns="http://www.w3.org/2000/svg"><path d="m33.58 238.41c1.34 3.19 2.63 6.39 3.88 9.62 13.48 34.72 78.09 194.85 133.06 220.75 61.72 29.08 303.78-75.91 309.85-150.78 6.06-74.87-82.48-270.9-132.82-282.53s-269.38 83.49-303.52 119.92c-29.16 31.11-15.16 71.79-10.45 83.02z" fill="#5ae4a7"/><path d="m33.58 238.41c1.34 3.19 2.63 6.39 3.88 9.62 13.48 34.72 78.09 194.85 133.06 220.75 61.72 29.08 303.78-75.91 309.85-150.78 6.06-74.87-82.48-270.9-132.82-282.53s-269.38 83.49-303.52 119.92c-29.16 31.11-15.16 71.79-10.45 83.02z" fill="#fff" opacity=".8"/><ellipse cx="372.27" cy="66.43" rx="37.78" ry="37.78" style="fill:#fff;stroke:#5ae4a7;stroke-width:6;stroke-linecap:round;stroke-linejoin:round;stroke-miterlimit:10" transform="matrix(.7071 -.7071 .7071 .7071 62.0629 282.6881)"/><path d="m372.32 51.92c-5.65.04-11.12 1.4-16.1 4.41-2.03 1.23-3.88 2.78-5.77 4.25-1.09.85-2.21 1.27-3.58.86-2.01-.6-2.98-3.04-1.85-4.82.38-.6.89-1.13 1.43-1.61 6.26-5.53 13.52-8.84 21.85-9.67 11.42-1.15 21.35 2.33 29.96 9.8.86.75 1.63 1.57 1.72 2.81.1 1.43-.44 2.53-1.66 3.24-1.24.72-2.49.57-3.64-.22-.68-.46-1.26-1.05-1.9-1.58-5.69-4.7-12.23-7.2-19.61-7.45-.23.01-.46 0-.85-.02z" fill="#1a2e35"/><path d="m389.15 70.14c-1.05.02-1.89-.44-2.63-1.13-2.99-2.78-6.45-4.73-10.49-5.39-6.23-1.02-11.91.33-16.83 4.42-.57.48-1.13.98-1.73 1.42-1.45 1.05-3.38.83-4.54-.49-1.13-1.29-1.12-3.21.11-4.49 2.73-2.87 6.01-4.91 9.7-6.27 7.16-2.63 14.23-2.3 21.16.87 2.83 1.3 5.35 3.07 7.55 5.27 1.03 1.04 1.29 2.5.72 3.78-.58 1.31-1.61 1.97-3.02 2.01z" fill="#1a2e35"/><path d="m372.19 67.81c4.61.1 8.56 1.73 11.74 5.12 1.26 1.34 1.32 3.34.14 4.61-1.26 1.37-3.22 1.45-4.73.3-1.2-.91-2.37-1.97-3.74-2.53-3.55-1.44-6.81-.64-9.64 1.9-1.01.9-2.04 1.62-3.51 1.36-2.48-.43-3.63-3.32-2.06-5.29 1.53-1.92 3.48-3.26 5.73-4.19 1.94-.8 3.95-1.27 6.07-1.28z" fill="#1a2e35"/><path d="m372.34 87.72c-2.36-.01-4.13-1.76-4.12-4.07.01-2.18 1.88-4.06 4.03-4.05 2.37.01 4.14 1.82 4.11 4.19-.03 2.16-1.85 3.94-4.02 3.93z" fill="#1a2e35"/><path d="m340.54 85.64 61.25-41.87" style="fill:none;stroke:#5ae4a7;stroke-width:6;stroke-linecap:round;stroke-linejoin:round;stroke-miterlimit:10"/><path d="m102.35 376.46c3.51 1.27 11.86.55 11.87.55.09-.01-2.15-5.36-2.33-5.68-2.08-3.72-8.29-9.69-12.97-8.75-3.37.68-5.05 4.2-4.07 7.36.99 3.22 4.5 5.44 7.5 6.52z" fill="#5ae4a7"/><path d="m106.78 400.5c3.58.29 10.9-2.35 11.49-2.56 1.45 4.1 3.26 8.19 5.33 12.23 1.18 2.31 2.44 4.6 3.73 6.88-.74-.95-1.42-1.8-1.52-1.91-2.99-3.04-10.55-7.15-14.82-5.01-3.07 1.54-3.76 5.38-1.99 8.17 1.81 2.84 5.78 4.05 8.95 4.31 3.22.26 9.51-1.87 11.17-2.45.5.87 1 1.74 1.51 2.61 2.44 4.17 4.89 8.31 7.16 12.45.8 1.46 1.54 2.92 2.28 4.39-.66-.85-1.23-1.55-1.32-1.65-2.99-3.04-10.55-7.15-14.82-5.01-3.07 1.54-3.76 5.39-1.99 8.17 1.81 2.84 5.78 4.05 8.95 4.31 3.07.25 8.9-1.66 10.87-2.35.72 1.52 1.44 3.05 2.06 4.55.4 1.04.87 2.01 1.21 3.08.37 1.05.73 2.09 1.09 3.11.62 2 1.27 4.07 1.82 6.04.4 1.37.75 2.68 1.11 4-.78-1.46-2.38-4.29-2.54-4.51-2.49-3.46-9.35-8.67-13.89-7.2-3.27 1.06-4.53 4.75-3.2 7.77 1.36 3.08 5.1 4.88 8.2 5.62 3.41.81 10.76-.6 11.68-.78.59 2.18 1.13 4.32 1.62 6.33.18.76.36 1.5.53 2.22h2.97c-.24-.95-.49-1.92-.76-2.92-.59-2.22-1.26-4.58-1.97-7 .54-.26 3.62-1.74 6.32-3.48 2.61 2.48 9.05 5.18 9.89 5.52-.72 2.15-1.43 4.23-2.14 6.18-.21.58-.42 1.15-.62 1.71h3.03c.09-.26.18-.51.26-.78.74-2.18 1.48-4.52 2.22-6.92.91.13 8.34 1.15 11.7.16 3.05-.9 6.7-2.89 7.89-6.05 1.17-3.09-.29-6.71-3.61-7.59-4.61-1.23-11.18 4.34-13.48 7.93-.14.21-1.36 2.67-2.1 4.24.3-.99.6-1.94.89-2.96.6-2.01 1.13-4.03 1.71-6.21.24-1.06.49-2.13.74-3.21.27-1.07.42-2.23.64-3.35.45-2.62.78-5.29 1.05-7.99 1.76.52 8.05 2.26 11.22 1.83 3.16-.43 7.06-1.84 8.71-4.78 1.62-2.87.73-6.67-2.42-8.05-4.37-1.91-11.71 2.6-14.53 5.79-.18.2-1.94 2.72-2.89 4.12.15-1.63.31-3.25.41-4.9.28-4.76.42-9.59.58-14.41.05-1.48.11-2.94.17-4.42.63.19 8.05 2.43 11.6 1.95 3.16-.42 7.06-1.84 8.71-4.78 1.62-2.87.73-6.67-2.42-8.05-4.37-1.91-11.71 2.6-14.53 5.79-.21.24-2.75 3.87-3.35 4.82.13-3.24.3-6.47.59-9.64.39-4.38 1.02-8.66 1.94-12.76.29.09 8.03 2.46 11.66 1.97 3.16-.43 7.06-1.84 8.71-4.78 1.62-2.87.73-6.67-2.42-8.05-4.37-1.91-11.71 2.6-14.53 5.79-.22.25-2.95 4.16-3.4 4.9.06-.24.09-.5.14-.74 1.03-4.36 2.58-8.46 4.22-12.22.95-2.19 1.98-4.23 3.02-6.19 1.4.59 7.81 3.21 11.13 3.13 3.18-.08 7.22-1.06 9.18-3.79 1.93-2.68 1.46-6.55-1.52-8.27-4.14-2.38-11.92 1.3-15.08 4.16-.17.16-1.74 1.93-2.87 3.24.49-.88.97-1.79 1.45-2.63 1.8-3.13 3.64-5.88 5.29-8.31.95-1.37 1.84-2.59 2.68-3.73 1.67-.14 8.4-.77 11.26-2.34 2.79-1.54 5.92-4.26 6.4-7.6.47-3.27-1.72-6.49-5.16-6.64-4.77-.21-9.98 6.64-11.47 10.64-.13.35-1.51 5.98-1.42 5.97 0 0 .08-.01.1-.01-.83 1.08-1.71 2.24-2.65 3.53-1.71 2.39-3.61 5.12-5.49 8.22s-3.84 6.51-5.58 10.29c-1.75 3.79-3.39 7.87-4.54 12.29-.01.05-.02.1-.03.15-.06-1.4-.38-5.3-.43-5.59-.82-4.18-4.85-11.79-9.59-12.36-3.41-.41-6.1 2.42-6.16 5.72-.06 3.37 2.58 6.57 5.09 8.53 2.83 2.22 10.39 4.05 10.99 4.2-1.06 4.22-1.8 8.63-2.31 13.14-.29 2.58-.51 5.18-.69 7.8-.09-1.21-.19-2.28-.22-2.43-.82-4.18-4.85-11.79-9.59-12.35-3.42-.41-6.1 2.42-6.16 5.72-.06 3.37 2.58 6.57 5.09 8.53 2.54 1.99 8.96 3.69 10.67 4.12-.06 1-.13 2.01-.18 3.01-.27 4.82-.51 9.63-.89 14.34-.13 1.66-.33 3.29-.52 4.92-.09-1.07-.17-1.97-.19-2.11-.82-4.18-4.85-11.79-9.59-12.36-3.42-.41-6.11 2.42-6.16 5.72-.06 3.37 2.59 6.57 5.09 8.53 2.43 1.9 8.34 3.52 10.36 4.04-.24 1.66-.48 3.33-.79 4.93-.24 1.09-.39 2.15-.69 3.23-.27 1.08-.54 2.14-.81 3.2-.59 2.01-1.19 4.09-1.81 6.04-.42 1.36-.85 2.65-1.28 3.94.15-1.65.38-4.89.37-5.16-.12-2.83-1.41-7.36-3.62-10.46-.01-.42-.06-.83-.16-1.24-.73-3.22-3.94-5.44-7.2-4.34-4.53 1.52-6.93 9.79-6.87 14.05 0 .25.34 2.98.58 4.69-.3-.99-.57-1.95-.89-2.96-.61-2.01-1.28-3.99-2-6.13-.38-1.02-.77-2.05-1.15-3.09-.36-1.04-.88-2.09-1.32-3.15-1.07-2.43-2.27-4.84-3.54-7.25 1.76-.54 7.96-2.55 10.37-4.66 2.4-2.1 4.87-5.43 4.63-8.79-.23-3.29-3.07-5.97-6.46-5.38-4.7.82-8.33 8.63-8.92 12.85-.04.26-.12 3.34-.14 5.03-.77-1.44-1.53-2.88-2.36-4.31-2.39-4.13-4.94-8.23-7.46-12.34-.77-1.26-1.53-2.52-2.29-3.78.63-.19 8.05-2.42 10.75-4.78 2.4-2.1 4.87-5.43 4.63-8.79-.23-3.29-3.07-5.97-6.46-5.38-4.7.82-8.33 8.63-8.92 12.85-.04.32-.16 4.75-.13 5.87-1.68-2.78-3.32-5.56-4.83-8.37-2.09-3.87-3.92-7.79-5.42-11.71.29-.09 8.05-2.38 10.81-4.79 2.4-2.1 4.87-5.43 4.63-8.79-.23-3.29-3.07-5.97-6.46-5.38-4.7.82-8.33 8.63-8.92 12.85-.05.33-.17 5.1-.13 5.96-.09-.23-.21-.46-.29-.7-1.54-4.21-2.51-8.48-3.22-12.53-.42-2.35-.68-4.62-.89-6.83 1.49-.28 8.28-1.63 11.01-3.53 2.61-1.82 5.44-4.86 5.57-8.23.13-3.3-2.4-6.27-5.83-6.06-4.77.3-9.23 7.66-10.28 11.79-.06.23-.39 2.57-.6 4.29-.08-1-.18-2.03-.24-2.99-.22-3.6-.21-6.92-.17-9.85.04-1.67.1-3.18.18-4.59 1.32-1.04 6.58-5.28 8.1-8.17 1.48-2.82 2.58-6.82 1.15-9.87-1.41-2.99-5.02-4.46-7.96-2.69-4.09 2.46-4.66 11.05-3.69 15.2.08.36 2.04 5.82 2.11 5.77 0 0 .06-.05.08-.06-.1 1.36-.19 2.81-.26 4.4-.1 2.94-.19 6.26-.05 9.88s.39 7.55 1.03 11.66c.63 4.12 1.51 8.43 2.99 12.75.02.05.04.1.06.15-.82-1.13-3.24-4.21-3.45-4.43-2.99-3.04-10.55-7.15-14.82-5.01-3.07 1.54-3.76 5.39-1.99 8.17 1.8 2.85 5.77 4.06 8.94 4.32z" fill="#5ae4a7"/><path d="m187.05 372.89c.08.04 1.17-5.66 1.19-6.02.32-4.25-1.57-12.65-5.99-14.45-3.19-1.3-6.53.72-7.45 3.89-.95 3.23.76 7.02 2.66 9.57 2.22 3 9.58 7.01 9.59 7.01z" fill="#5ae4a7"/><path d="m31.77 418.52c1.99.72 6.71.31 6.72.31.05 0-1.22-3.03-1.32-3.21-1.18-2.11-4.69-5.48-7.34-4.95-1.91.38-2.85 2.38-2.3 4.16.56 1.82 2.55 3.07 4.24 3.69z" fill="#5ae4a7"/><path d="m34.28 432.12c2.03.16 6.17-1.33 6.5-1.45.82 2.32 1.85 4.64 3.01 6.92.67 1.31 1.38 2.6 2.11 3.89-.42-.54-.8-1.02-.86-1.08-1.69-1.72-5.97-4.05-8.38-2.84-1.74.87-2.13 3.05-1.12 4.62 1.02 1.61 3.27 2.29 5.07 2.44 1.82.15 5.38-1.06 6.32-1.39.29.49.56.99.85 1.48 1.38 2.36 2.76 4.7 4.05 7.04.45.83.87 1.65 1.29 2.48-.37-.48-.69-.88-.75-.94-1.69-1.72-5.97-4.05-8.38-2.84-1.74.87-2.13 3.05-1.12 4.62 1.02 1.61 3.27 2.29 5.07 2.44 1.74.14 5.03-.94 6.15-1.33.41.86.81 1.72 1.17 2.58.23.59.49 1.14.69 1.74.21.59.41 1.18.62 1.76.35 1.13.72 2.3 1.03 3.42.22.77.42 1.52.63 2.26-.44-.83-1.34-2.43-1.43-2.55-1.41-1.96-5.29-4.91-7.86-4.07-1.85.6-2.56 2.69-1.81 4.4.77 1.75 2.88 2.76 4.64 3.18 1.93.46 6.09-.34 6.61-.44.33 1.24.64 2.44.92 3.58.1.43.2.85.3 1.26h1.68c-.14-.54-.28-1.09-.43-1.65-.33-1.26-.71-2.59-1.11-3.96.31-.15 2.05-.98 3.58-1.97 1.48 1.41 5.12 2.93 5.59 3.12-.41 1.21-.81 2.39-1.21 3.5-.12.33-.24.65-.35.97h1.71c.05-.15.1-.29.15-.44.42-1.23.84-2.55 1.26-3.92.51.07 4.72.65 6.62.09 1.73-.51 3.79-1.64 4.46-3.42.66-1.75-.16-3.8-2.04-4.3-2.61-.7-6.32 2.46-7.63 4.49-.08.12-.77 1.51-1.19 2.4.17-.56.34-1.1.5-1.67.34-1.14.64-2.28.97-3.51.14-.6.28-1.21.42-1.82.15-.6.24-1.26.36-1.9.25-1.48.44-3 .59-4.52 1 .29 4.55 1.28 6.35 1.04 1.79-.24 3.99-1.04 4.93-2.7.92-1.63.42-3.78-1.37-4.56-2.48-1.08-6.62 1.47-8.22 3.28-.1.11-1.1 1.54-1.63 2.33.08-.92.17-1.84.23-2.77.16-2.69.24-5.43.33-8.15.03-.83.06-1.67.1-2.5.35.11 4.55 1.37 6.56 1.1 1.79-.24 3.99-1.04 4.93-2.7.92-1.63.42-3.78-1.37-4.56-2.47-1.08-6.62 1.47-8.22 3.28-.12.14-1.56 2.19-1.9 2.73.08-1.83.17-3.66.33-5.46.22-2.48.58-4.9 1.1-7.22.16.05 4.54 1.39 6.6 1.11 1.79-.24 3.99-1.04 4.93-2.7.92-1.63.42-3.78-1.37-4.56-2.48-1.08-6.62 1.47-8.22 3.28-.12.14-1.67 2.35-1.92 2.77.03-.14.05-.28.08-.42.59-2.47 1.46-4.79 2.39-6.92.54-1.24 1.12-2.39 1.71-3.5.79.33 4.42 1.82 6.3 1.77 1.8-.04 4.08-.6 5.2-2.15 1.09-1.52.83-3.71-.86-4.68-2.34-1.35-6.75.73-8.53 2.35-.1.09-.99 1.09-1.62 1.83.27-.5.55-1.02.82-1.49 1.02-1.77 2.06-3.33 3-4.7.54-.78 1.04-1.47 1.51-2.11.95-.08 4.75-.44 6.37-1.33 1.58-.87 3.35-2.41 3.62-4.3.27-1.85-.97-3.67-2.92-3.76-2.7-.12-5.65 3.76-6.49 6.02-.07.2-.85 3.38-.8 3.38h.06c-.47.61-.97 1.27-1.5 2-.97 1.36-2.05 2.89-3.11 4.65-1.07 1.75-2.17 3.68-3.16 5.82s-1.92 4.45-2.57 6.95c-.01.03-.01.06-.02.09-.04-.79-.21-3-.25-3.17-.46-2.37-2.75-6.67-5.43-6.99-1.93-.23-3.45 1.37-3.49 3.24-.03 1.91 1.46 3.72 2.88 4.83 1.6 1.25 5.88 2.29 6.22 2.38-.6 2.39-1.02 4.88-1.3 7.44-.17 1.46-.29 2.93-.39 4.41-.05-.68-.11-1.29-.12-1.38-.46-2.37-2.75-6.67-5.43-6.99-1.93-.23-3.45 1.37-3.49 3.24-.03 1.91 1.46 3.72 2.88 4.83 1.44 1.13 5.07 2.09 6.04 2.33-.03.57-.07 1.14-.1 1.7-.15 2.73-.29 5.45-.51 8.11-.08.94-.19 1.86-.29 2.78-.05-.61-.09-1.12-.11-1.19-.46-2.37-2.75-6.67-5.43-6.99-1.93-.23-3.45 1.37-3.49 3.24-.03 1.91 1.46 3.72 2.88 4.83 1.37 1.08 4.72 1.99 5.86 2.28-.14.94-.27 1.89-.45 2.79-.13.62-.22 1.22-.39 1.83-.15.61-.31 1.21-.46 1.81-.33 1.14-.67 2.32-1.02 3.42-.24.77-.48 1.5-.73 2.23.09-.93.22-2.77.21-2.92-.07-1.6-.8-4.16-2.05-5.92-.01-.24-.04-.47-.09-.7-.41-1.82-2.23-3.08-4.07-2.46-2.56.86-3.92 5.54-3.89 7.95 0 .14.19 1.68.33 2.65-.17-.56-.32-1.1-.5-1.67-.35-1.13-.73-2.26-1.13-3.47-.22-.58-.43-1.16-.65-1.75-.21-.59-.5-1.18-.75-1.78-.61-1.38-1.29-2.74-2-4.1.99-.31 4.5-1.44 5.87-2.64 1.36-1.19 2.75-3.07 2.62-4.98-.13-1.86-1.74-3.38-3.65-3.05-2.66.46-4.71 4.88-5.05 7.27-.02.15-.07 1.89-.08 2.85-.44-.81-.87-1.63-1.34-2.44-1.35-2.34-2.79-4.66-4.22-6.98-.44-.71-.87-1.43-1.3-2.14.35-.11 4.56-1.37 6.08-2.7 1.36-1.19 2.75-3.07 2.62-4.98-.13-1.86-1.74-3.38-3.65-3.05-2.66.46-4.71 4.88-5.05 7.27-.03.18-.09 2.69-.08 3.32-.95-1.57-1.88-3.14-2.73-4.73-1.18-2.19-2.22-4.41-3.07-6.63.17-.05 4.56-1.35 6.12-2.71 1.36-1.19 2.75-3.07 2.62-4.98-.13-1.86-1.74-3.38-3.65-3.05-2.66.46-4.71 4.88-5.05 7.27-.03.19-.1 2.88-.07 3.37-.05-.13-.12-.26-.17-.4-.87-2.38-1.42-4.8-1.82-7.09-.24-1.33-.39-2.61-.51-3.86.84-.16 4.69-.92 6.23-2 1.48-1.03 3.08-2.75 3.15-4.66.07-1.87-1.36-3.55-3.3-3.43-2.7.17-5.22 4.33-5.82 6.67-.03.13-.22 1.46-.34 2.43-.05-.57-.1-1.15-.13-1.69-.13-2.04-.12-3.91-.1-5.57.02-.94.06-1.8.1-2.6.75-.59 3.72-2.99 4.58-4.62.84-1.6 1.46-3.86.65-5.58-.8-1.69-2.84-2.53-4.51-1.52-2.32 1.39-2.64 6.25-2.09 8.6.05.2 1.15 3.29 1.19 3.26 0 0 .04-.03.04-.04-.06.77-.11 1.59-.15 2.49-.06 1.66-.11 3.54-.03 5.59s.22 4.27.58 6.6.85 4.77 1.69 7.22c.01.03.02.06.03.08-.47-.64-1.83-2.38-1.95-2.5-1.69-1.72-5.97-4.05-8.38-2.84-1.74.87-2.13 3.05-1.12 4.62 1.01 1.67 3.26 2.35 5.05 2.5z" fill="#5ae4a7"/><path d="m79.7 416.49c.04.02.66-3.2.68-3.41.18-2.41-.89-7.16-3.39-8.18-1.8-.73-3.69.41-4.22 2.2-.54 1.83.43 3.97 1.5 5.42 1.26 1.71 5.42 3.97 5.43 3.97z" fill="#5ae4a7"/><path d="m410.66 418.52c1.99.72 6.71.31 6.72.31.05 0-1.22-3.03-1.32-3.21-1.18-2.11-4.69-5.48-7.34-4.95-1.91.38-2.85 2.38-2.3 4.16.56 1.82 2.54 3.07 4.24 3.69z" fill="#5ae4a7"/><path d="m413.17 432.12c2.03.16 6.17-1.33 6.5-1.45.82 2.32 1.85 4.64 3.01 6.92.67 1.31 1.38 2.6 2.11 3.89-.42-.54-.8-1.02-.86-1.08-1.69-1.72-5.97-4.05-8.38-2.84-1.74.87-2.13 3.05-1.12 4.62 1.02 1.61 3.27 2.29 5.07 2.44 1.82.15 5.38-1.06 6.32-1.39.29.49.56.99.85 1.48 1.38 2.36 2.76 4.7 4.05 7.04.45.83.87 1.65 1.29 2.48-.37-.48-.69-.88-.75-.94-1.69-1.72-5.97-4.05-8.38-2.84-1.74.87-2.13 3.05-1.12 4.62 1.02 1.61 3.27 2.29 5.07 2.44 1.74.14 5.03-.94 6.15-1.33.41.86.81 1.72 1.17 2.58.23.59.49 1.14.69 1.74.21.59.41 1.18.62 1.76.35 1.13.72 2.3 1.03 3.42.22.77.42 1.52.63 2.26-.44-.83-1.34-2.43-1.43-2.55-1.41-1.96-5.29-4.91-7.86-4.07-1.85.6-2.56 2.69-1.81 4.4.77 1.75 2.88 2.76 4.64 3.18 1.93.46 6.09-.34 6.61-.44.33 1.24.64 2.44.92 3.58.1.43.2.85.3 1.26h1.68c-.14-.54-.28-1.09-.43-1.65-.33-1.26-.71-2.59-1.11-3.96.31-.15 2.05-.98 3.58-1.97 1.48 1.41 5.12 2.93 5.59 3.12-.41 1.21-.81 2.39-1.21 3.5-.12.33-.24.65-.35.97h1.71c.05-.15.1-.29.15-.44.42-1.23.84-2.55 1.26-3.92.51.07 4.72.65 6.62.09 1.73-.51 3.79-1.64 4.46-3.42.66-1.75-.16-3.8-2.04-4.3-2.61-.7-6.32 2.46-7.63 4.49-.08.12-.77 1.51-1.19 2.4.17-.56.34-1.1.5-1.67.34-1.14.64-2.28.97-3.51.14-.6.28-1.21.42-1.82.15-.6.24-1.26.36-1.9.25-1.48.44-3 .59-4.52 1 .29 4.55 1.28 6.35 1.04 1.79-.24 3.99-1.04 4.93-2.7.92-1.63.42-3.78-1.37-4.56-2.48-1.08-6.62 1.47-8.22 3.28-.1.11-1.1 1.54-1.63 2.33.08-.92.17-1.84.23-2.77.16-2.69.24-5.43.33-8.15.03-.83.06-1.67.1-2.5.35.11 4.55 1.37 6.56 1.1 1.79-.24 3.99-1.04 4.93-2.7.92-1.63.42-3.78-1.37-4.56-2.47-1.08-6.62 1.47-8.22 3.28-.12.14-1.56 2.19-1.9 2.73.08-1.83.17-3.66.33-5.46.22-2.48.58-4.9 1.1-7.22.16.05 4.54 1.39 6.6 1.11 1.79-.24 3.99-1.04 4.93-2.7.92-1.63.42-3.78-1.37-4.56-2.48-1.08-6.62 1.47-8.22 3.28-.13.14-1.67 2.35-1.92 2.77.03-.14.05-.28.08-.42.59-2.47 1.46-4.79 2.39-6.92.54-1.24 1.12-2.39 1.71-3.5.79.33 4.42 1.82 6.3 1.77 1.8-.04 4.08-.6 5.2-2.15 1.09-1.52.83-3.71-.86-4.68-2.34-1.35-6.75.73-8.53 2.35-.1.09-.99 1.09-1.62 1.83.27-.5.55-1.02.82-1.49 1.02-1.77 2.06-3.33 3-4.7.54-.78 1.04-1.47 1.51-2.11.95-.08 4.75-.44 6.37-1.33 1.58-.87 3.35-2.41 3.62-4.3.27-1.85-.97-3.67-2.92-3.76-2.7-.12-5.65 3.76-6.49 6.02-.07.2-.85 3.38-.8 3.38h.06c-.47.61-.97 1.27-1.5 2-.97 1.36-2.05 2.89-3.11 4.65-1.07 1.75-2.17 3.68-3.16 5.82s-1.92 4.45-2.57 6.95c-.01.03-.01.06-.02.09-.04-.79-.21-3-.25-3.17-.46-2.37-2.75-6.67-5.43-6.99-1.93-.23-3.45 1.37-3.49 3.24-.03 1.91 1.46 3.72 2.88 4.83 1.6 1.25 5.88 2.29 6.22 2.38-.6 2.39-1.02 4.88-1.3 7.44-.16 1.46-.29 2.93-.39 4.41-.05-.68-.11-1.29-.12-1.38-.46-2.37-2.75-6.67-5.43-6.99-1.93-.23-3.45 1.37-3.49 3.24-.03 1.91 1.46 3.72 2.88 4.83 1.44 1.13 5.07 2.09 6.04 2.33-.03.57-.07 1.14-.1 1.7-.15 2.73-.29 5.45-.51 8.11-.08.94-.19 1.86-.29 2.78-.05-.61-.09-1.12-.11-1.19-.46-2.37-2.75-6.67-5.43-6.99-1.93-.23-3.45 1.37-3.49 3.24-.03 1.91 1.46 3.72 2.88 4.83 1.37 1.08 4.72 1.99 5.86 2.28-.14.94-.27 1.89-.45 2.79-.13.62-.22 1.22-.39 1.83-.15.61-.31 1.21-.46 1.81-.33 1.14-.67 2.32-1.02 3.42-.24.77-.48 1.5-.73 2.23.09-.93.22-2.77.21-2.92-.07-1.6-.8-4.16-2.05-5.92-.01-.24-.04-.47-.09-.7-.41-1.82-2.23-3.08-4.07-2.46-2.56.86-3.92 5.54-3.89 7.95 0 .14.19 1.68.33 2.65-.17-.56-.32-1.1-.5-1.67-.35-1.13-.73-2.26-1.13-3.47-.22-.58-.43-1.16-.65-1.75-.21-.59-.5-1.18-.75-1.78-.61-1.38-1.29-2.74-2-4.1.99-.31 4.5-1.44 5.87-2.64 1.36-1.19 2.75-3.07 2.62-4.98-.13-1.86-1.74-3.38-3.65-3.05-2.66.46-4.71 4.88-5.05 7.27-.02.15-.07 1.89-.08 2.85-.44-.81-.87-1.63-1.34-2.44-1.35-2.34-2.79-4.66-4.22-6.98-.44-.71-.87-1.43-1.3-2.14.35-.11 4.56-1.37 6.08-2.7 1.36-1.19 2.75-3.07 2.62-4.98-.13-1.86-1.74-3.38-3.65-3.05-2.66.46-4.71 4.88-5.05 7.27-.03.18-.09 2.69-.08 3.32-.95-1.57-1.88-3.14-2.73-4.73-1.18-2.19-2.22-4.41-3.07-6.63.17-.05 4.56-1.35 6.12-2.71 1.36-1.19 2.75-3.07 2.62-4.98-.13-1.86-1.74-3.38-3.65-3.05-2.66.46-4.71 4.88-5.05 7.27-.03.19-.1 2.88-.07 3.37-.05-.13-.12-.26-.17-.4-.87-2.38-1.42-4.8-1.82-7.09-.24-1.33-.39-2.61-.51-3.86.84-.16 4.69-.92 6.23-2 1.48-1.03 3.08-2.75 3.15-4.66.07-1.87-1.36-3.55-3.3-3.43-2.7.17-5.22 4.33-5.82 6.67-.03.13-.22 1.46-.34 2.43-.05-.57-.1-1.15-.13-1.69-.13-2.04-.12-3.91-.1-5.57.02-.94.06-1.8.1-2.6.75-.59 3.72-2.99 4.58-4.62.84-1.6 1.46-3.86.65-5.58-.8-1.69-2.84-2.53-4.51-1.52-2.32 1.39-2.64 6.25-2.09 8.6.05.2 1.15 3.29 1.19 3.26 0 0 .04-.03.04-.04-.06.77-.11 1.59-.15 2.49-.06 1.66-.11 3.54-.03 5.59s.22 4.27.58 6.6.85 4.77 1.69 7.22c.01.03.02.06.03.08-.47-.64-1.83-2.38-1.95-2.5-1.69-1.72-5.97-4.05-8.38-2.84-1.74.87-2.13 3.05-1.12 4.62 1 1.67 3.25 2.35 5.05 2.5z" fill="#5ae4a7"/><path d="m458.58 416.49c.04.02.66-3.2.68-3.41.18-2.41-.89-7.16-3.39-8.18-1.8-.73-3.69.41-4.22 2.2-.54 1.83.43 3.97 1.5 5.42 1.26 1.71 5.43 3.97 5.43 3.97z" fill="#5ae4a7"/><g stroke="#1a2e35" stroke-linecap="round" stroke-linejoin="round" stroke-miterlimit="10"><path d="m149.84 100.43 13.65 2.82 4.65 4.83 6.06.93 1.93 5.75-1.41 3.9-4.14 1.89-10.13-1.65-.27-1.25 4.79-3.34-3.31-6.1-9.06-1.24-4.82-4.13z" fill="#5ae4a7"/><path d="m259.8 226.34-10.82-1.83-13.06-1.66-9.61 2.13-9.41.14-9.44 4.37-5.51 1.55-3.41.76-5.69 5.17-5.65 3.86-9.54-3.41.24-9.16-5.75-1-6.2 1.38-1.55-2.58-.62-5.72-2.86-2.62-4.2 1.58-.55 3.38-5.2 1.48-5.89-4.55-3.51-7.03 2.72-9.72 9.13-1.38 2.96 1.62 3.72-.83 4.03-3.82 4.31.35 7.72 8.37 2.1-.79-2.2-6.99-2.69-3.31-.69-6.03 10.37-7.51-1-11.82 4.07-5.13 2.45-8.03 2.96-1.31 6.1-6.24-.24-2.55-4.89 1.41-1.48-2.27-3.41.76-5 2.41 1.59-4.58 10.17-5.51 1.86-3.34 5.86 5.86 3.41 2.17 4.07-2.2-2.76-3.62-7.55-3.21-9.3-6.72-8.92-3.55-7.72.41-4.55-2.89-5.24-.14-.34 1.38 1.38 9.13 1.93 2.83-.59 10.54-7.3-3.58-.03-4.55-7.2-1.65-3.55-2.79-.17-8.1 7.55-8.51-1.03-7.58-3.34 1.07-2.79-2.31-1.96-4.44-2.24.17-.14 5.24-3.27 1.38-3.96-10.51-2.83-1-4.75-.9-4.41 3.58 7.51 4.51 2.41 5-13.02-5.89-9.61-6.65-2.48-8.24-8.61-.69-5.31 5.41s-2.69 2.55-4.1 3.51-7.17 2.89-7.17 2.89l-.11 5.54-7.06 1.89 1.38 3.27 11.89-.69 7.34 5.2 2.41 10.85-1.28 10.37 2.89 10.1-5.31 17.12 3.17 23.05 5.68 12.4 6.23 9.03 4.79-.41-2.65-4.62-3.31-3.17-3.07-6.48 2.65-1.24 6.82 10.2 5.3 9.23 1.79 8.06 7.48 5.82 12.26 5.41 17.09.76 5.99 3.55 4.82 4.14 6.34 2.17 7.24.35 6.75-1.82s.38 3.17.72 4.72-2.83 7.79-2.83 7.79l-2.03 6.96 4 6.27 7.44 1.28 11.82 7.79 4.75.9 1.03 4.65 1.02 2.05c23.79-9.46 43.74-25.31 58.24-45.06l-.34-2.28 5-17.05-4.65-1.9z" fill="#5ae4a7"/><path d="m264.85 96.69-4.72-5.13-5.86-5.86-3.31-9.03 5.79-.31-.38-3.17-4.1.59 3.07-2.31 3.24-3-.69-3.1-4.82-4.14-2.28-6.5c-30.47-23.97-71.04-34.58-111.84-25.52-18.54 4.12-35.32 11.91-49.76 22.42l8.28 3.48-3.1 6.55-5.62 2.55 1.25 8.51-2.27 1.48-2.34 4.1 1.55 5.51 5.41-.55-1 5.75 5.27-1.17 6.44-13.47-.17-5.17 8.54-2.55 1.34-4.2 8.79-2.93-.24-5.48 6.44-1.76s4.1-3.51 5.03-3.72 5.62.38 5.62.38l5.48 2.69 6.51-1.45 4.82-4.65 7.27-.96s2.14.83 3.69.48c1.55-.34 5.72-3.55 5.72-3.55l10.23 3.58 4.34 1.96 1.03 4.65 4.79-.41.93-3.13 4.44.97.24 2.55-8.75 4.55 6.79 5.65 12.54 3.72 6.03 5.17 6.96-.89.86-3.45 2.34-1.17-9.44-4.41-5.1.48 3.76-2.14-4.89-4.45 5.2-1.48 7.65 2.21 3.2 7.1 4.31 3.27 4.79 8.37 7.92 3.45 2.27 10.23 8.16 3.07.45 3.48-.04 4.24 3.1 5.17 1.24 2.65 5.48-.24 1.31-5.82z" fill="#5ae4a7"/><path d="m261.95 64.55.4 1.78-.45 5.31 1.89 4.14 3.69.48 1.31 5.89-4.07-.72 2.79 16.95-2.21 7.65 4.41 8.13 4.86 2.83 3.72 16.75 6.92 12.13 6.55 8.96 7.55.28 1.1-6.75.83-1.02c-.52-5.47-1.38-10.97-2.6-16.47-5.81-26.17-18.92-48.83-36.69-66.32z" fill="#5ae4a7"/><path d="m189.88 78.52-22.46-4.45-8.93 2.31-.86 6.37-4.61-3.2-6.48 3.06 1.65 10.37 6.48 2.8 2.72-6.79 5.69 3.62 11.47 6.23 3.86 8.58 10.33 8.45 12.54-5.07-1.34-4.58-3.96-4.65-3.38-12.27 1.93-5.96z" fill="#5ae4a7"/><path d="m208.14 81.62-4.92-.21-3.28 4.31 4.17 8.51 4.03-.89z" fill="#5ae4a7"/><path d="m238.29 81.11-11.78-3.24-3-3.24-2.27 1.48 3.54 5.72 3.66 7.65 5.06.83.66-1.45-3.83-4.03 8.75 1.31z" fill="#5ae4a7"/><path d="m172.6 213.17-.96 1.51 9.92.73 4.69 3.51 6.02-.69 1.42-3.89-7.41.34z" fill="#fff"/><path d="m201.51 212.93-6.1 3.3 1.48 2.28 8.06-1.79 1-2.83-2.72.93z" fill="#fff"/><g fill="none"><circle cx="168.01" cy="159.73" r="133.72"/><ellipse cx="168.01" cy="159.73" rx="83.82" ry="133.72"/><ellipse cx="168.01" cy="159.73" rx="30.52" ry="133.72"/><path d="m94.64 48.77h147.43"/><path d="m45.18 107.09h245.28"/><path d="m94.64 270.56h147.43"/><path d="m45.18 212.24h245.28"/><path d="m301.73 159.73h-267.44"/></g><path d="m142.08 139.24h49.43v42.37h-49.43z" fill="#fff"/><path d="m179.46 157.76v-5.65h-3.99v-5.81h-17.02v5.81h-4v5.65h-6.08v17.1h6.08 4 17.02 3.99 6.09v-17.1z" fill="#1a2e35"/><path d="m333.62 472.63v-112.3l94.75 4.03v108.14" fill="#5ae4a7"/><path d="m368.6 397.85 11.23 5.51v69.96" fill="none"/><path d="m307.97 305.85-2.44 12.24 29.18 14.59.91-21.58z" fill="#fff"/><path d="m360.54 221.49s-33.07 11.02-35.19 11.87-4.45 3.39-4.24 5.51-13.14 65.29-13.14 66.98c0 1.7 23.74 8.48 23.74 8.48s.85 48.96 1.06 50.24c.21 1.27 1.63 6.1 26.5 6.57 20.57.39 50.08 1.24 56.81.85 12.25-.71 12.72-4.88 13.35-6.15.64-1.27 0-58.08 0-58.08l42.95 20.38s.42-.42.21-5.72-15.4-44.97-22.18-62.56-10.17-22.47-18.44-28.62-28.19-14.41-28.19-14.41-16.32 3.39-27.98 3.6-15.26 1.06-15.26 1.06z" fill="#fff"/><path d="m333.03 264.49.09-3.45" fill="none"/><path d="m331.71 314.33 1.23-46.37" fill="none"/><path d="m462.48 292.42c-18.99-1.03-28.07 11.85-30.58 16.2l40.48 19.51s.42-.42.21-5.72c-.1-2.65-6.14-18.75-10.11-29.99z" fill="#fff"/><path d="m377.5 229.55s6.57 20.56 9.11 21.41 2.12-5.51 2.12-5.51 17.17-26.71 16.53-29.46c-.64-2.76-1.7-5.09-4.88-7.42s-4.66-2.97-5.72-2.76-17.81 20.98-17.81 20.98z" fill="#fff"/><path d="m350.79 222.34s-1.27 15.26-1.7 17.59c-.42 2.33-2.33 5.94-.85 6.57 1.48.64 8.27-4.88 9.75-7.21s1.06-3.18 1.48-5.3c.43-2.11-5.71-12.92-8.68-11.65z" fill="#fff"/><path d="m360.54 212.8s-10.39 7.84-9.75 9.54 15.69 26.5 15.69 26.5-.85-22.47-1.48-29.25c-.64-6.79-4.46-6.79-4.46-6.79z" fill="#fff"/><path d="m357.36 203.69 9.11 45.15s4.03-7.63 4.66-8.27c.64-.64 8.9-15.26 8.9-15.26s15.9-11.23 15.9-12.51c0-1.27.85-14.41.85-14.41s-13.78 9.11-18.02 10.17c-4.23 1.06-21.4-4.87-21.4-4.87z" fill="#fff"/><path d="m357.36 203.69 3.84 19.04 18.1-9.97-.54-4.2c-4.23 1.06-21.4-4.87-21.4-4.87z" fill="#1a2e35"/><path d="m349.09 165.53s-2.54-3.82-4.03 1.48c-1.48 5.3 5.3 14.2 5.3 14.2l.85-15.47z" fill="#fff"/><path d="m350.58 149.64s0 38.58.64 42.18 9.75 22.04 13.99 23.32c4.24 1.27 11.02 1.06 13.14.42s16.75-12.29 18.44-17.17c1.7-4.88 3.18-11.66 3.18-11.66s6.36-3.39 7.84-8.27.85-9.33-.64-11.02c-1.48-1.7-2.54-1.91-2.54-1.91l-2.33-3.39s.64-5.51.64-6.78-1.27-8.48-9.54-11.87-32.22-2.54-37.31-1.48c-5.09 1.05-5.51 7.63-5.51 7.63z" fill="#fff"/></g><path d="m364.99 170.62c0 1.76-.85 3.18-1.91 3.18-1.05 0-1.91-1.42-1.91-3.18s.85-3.18 1.91-3.18 1.91 1.42 1.91 3.18z" fill="#1a2e35"/><path d="m386.61 172.53c0 1.76-.85 3.18-1.91 3.18-1.05 0-1.91-1.42-1.91-3.18s.85-3.18 1.91-3.18 1.91 1.42 1.91 3.18z" fill="#1a2e35"/><g stroke="#1a2e35" stroke-linecap="round" stroke-linejoin="round" stroke-miterlimit="10"><path d="m357.78 162.78s4.24-4.24 9.11-.21" fill="none"/><path d="m380.25 163.2s4.88-3.18 9.54 2.12" fill="none"/><path d="m370.29 167.44-1.69 22.68 9.53.42" fill="none"/><path d="m369.65 199.87 4.24.42" fill="none"/><path d="m347.19 146.46s-2.54 8.05-1.48 10.17 2.97 6.99 2.97 6.99.64 6.15 1.27 7.42l.64-21.41c-.01.01-.65-5.51-3.4-3.17z" fill="#1a2e35"/><path d="m358.21 128.44s-19.29 7.84-18.44 12.93 7.42 5.09 7.42 5.09-5.09 5.51 5.3 7.42 29.89-6.99 29.89-6.99-2.76 6.15 0 6.78c2.76.64 8.9-.21 8.9-.21s.21 6.15 2.54 7.63 5.72 1.7 5.72 1.7-1.27 11.87-.21 12.51 1.27-.42 1.48-1.06 1.7-7.63 1.7-7.63l2.12-1.06.64-5.51s5.51-8.69 3.82-13.78c-1.7-5.09-7.21-10.81-7.21-10.81s-7.63-10.39-22.04-11.87c-14.42-1.5-21.63 4.86-21.63 4.86z" fill="#1a2e35"/><path d="m305.42 299.5s.67 2.27-.13 10.97-.94 19 2.94 24.75 14.85 8.7 18.6 7.09 4.82-4.42 4.95-11.37c.13-6.96-9.37-33.32-9.37-33.32l-16.73-2.14z" fill="#fff"/><path d="m305.69 284.03s-4.83-2.07-7.2-4.83-5.32-7.1-6.11-7.39c-.79-.3-4.73 2.46-3.35 6.01s6.7 7.89 6.7 7.89 2.96 4.63 3.45 5.82c.49 1.18 1.94 5.62 3.43 7.26 4.07 4.5 6.92 5.65 13.03 5.75s7.04-2.32 7.73-4.88.97-7.02.58-7.11c-.39-.1-16.79-3.48-17.48-5.16-.68-1.68-.78-3.36-.78-3.36z" fill="#fff"/><path d="m266.49 358.82v-30.42c0-22.44 18.19-40.63 40.63-40.63s40.63 18.19 40.63 40.63v84.81c0 17.53 14.21 31.75 31.75 31.75 17.53 0 31.75-14.21 31.75-31.75v-197.37" fill="none" stroke-width="12"/><path d="m256.78 352.37h20.18v21.65h-20.18z" fill="#5ae4a7"/><path d="m273.42 352.37h3.53v21.65h-3.53z" fill="#5ae4a7"/><path d="m257.43 357.9h19.36" fill="none"/><path d="m257.43 361.97h19.36" fill="none"/><path d="m257.43 366.04h19.36" fill="none"/><path d="m257.43 370.1h19.36" fill="none"/><path d="m265.4 378.08h11.72v42.64h-11.72z" fill="#1a2e35"/><path d="m253.22 415.41h22.19v25.4h-22.19z" fill="#fff"/><path d="m256.86 424.67h1.88v16.15h-1.88z" fill="#ccc"/><path d="m260.48 424.67h1.88v16.15h-1.88z" fill="#ccc"/><path d="m264.11 424.67h1.88v16.15h-1.88z" fill="#ccc"/><path d="m270.2 415.41h5.2v25.4h-5.2z" fill="#fff"/><path d="m264.62 421.25h3.31l3.04-41.11h4.2v60.63h5.84v-68.57h-14.71z" fill="#5ae4a7"/><path d="m264.62 421.25h-13.46l-1.68-49.05h16.82z" fill="#1a2e35"/><path d="m320.67 286.36s3.61-.72 4.26 1.2c.64 1.93.08 6.91-.56 8.99-.64 2.09-2.41 2.65-3.37 2.57s-2.25-1.2-2.25-1.2 1.28-3.45 1.37-6.83c.07-3.36.55-4.73.55-4.73z" fill="#fff"/><path d="m315.21 285.94s2.89-.32 4.42.56.72 5.62.4 8.67-1.85 4.42-3.45 4.34c-1.61-.08-3.94-1.45-3.94-2.25s-.08-1.2-.08-1.2.64-.48 1.12-3.37 1.53-6.75 1.53-6.75z" fill="#fff"/><path d="m309.25 286.65s2.36-1.07 4.3-.21c1.93.86 1.21 2.22.78 6.94-.43 4.73-2.01 6.34-3.94 5.94-1.28-.27-3.36-.78-3.54-2.64s2.4-10.03 2.4-10.03z" fill="#fff"/><path d="m307.47 290.85s.76-2.59 0-4.57-4.72-2.29-5.33-.76c-.61 1.52-1.52 9.14-.91 10.06.61.91 3.23 1.73 4.27.91 1.03-.82 1.97-5.64 1.97-5.64z" fill="#fff"/><path d="m433.82 286.6s-8.59-7.85-13.1-14.24-10.19-8.65-15.26-10.25-8.86.85-8.69 3.6 2.91 4.58 2.91 4.58-2.65 13.22-1.6 15.81.18 4.61 1.7 6.98 4.58 3.96 13.97 5.34c9.4 1.37 10.54 1.4 10.54 1.4s23.88 39.45 29.36 44.12 16.3 5.11 20.16 1.23 3.99-18.47 1.98-21.34c-2.02-2.88-41.97-37.23-41.97-37.23z" fill="#fff"/><path d="m478.24 473.02h-458.42" fill="none"/></g></svg>